# xmcd
#
# Track frame offsets: 
#        150
#        15683
#        29270
#        38029
#        48223
#        62139
#        77166
#        89580
#        101354
#        117606
#        127356
#        133109
#        145809
#        154266
#        167006
#        182639
#        201708
#        214434
#        228324
#        244662
#        254891
#        270109
#        281914
#        288787
#        294823
#        309000
#        316629
#        319573
#
# Disc length: 4398 seconds
#
# Revision: 1
# Processed by: cddbd v1.5.2PL0 Copyright (c) Steve Scherf et al.
# Submitted via: ExactAudioCopyFreeDBPlugin 1.0
#
DISCID=9c112c1c
DTITLE=Dinah Washington - Queen Of The Juke Box "Live" 1948-1955
DYEAR=1955
DGENRE=Blues
TTITLE0=I Want to Cry
TTITLE1=It's Too Soon to Know
TTITLE2=I'll Never Be Free
TTITLE3=I Cross My Fingers
TTITLE4=Harbor Lights
TTITLE5=Only a Moment Ago
TTITLE6=I Wanna Be Loved
TTITLE7=My Heart Cries for You
TTITLE8=Time Out for Tears
TTITLE9=It's Too Soon to Know
TTITLE10=NY, Chicago, and LA
TTITLE11=Baby Get Lost
TTITLE12=Dinah Talks
TTITLE13=I Wanna Be Loved
TTITLE14=I Won't Cry Anymore
TTITLE15=Please Send Me Someone to Love
TTITLE16=Tell Me Why
TTITLE17=Cold, Cold Heart
TTITLE18=Wheel of Fortune
TTITLE19=Mixed Emotions
TTITLE20=Blow Top Blues
TTITLE21=Such a Night
TTITLE22=My Lean Baby
TTITLE23=NY, Chicago, and LA
TTITLE24=Mixed Emotions
TTITLE25=Come Rain or Come Shine
TTITLE26=Dinah Talks
TTITLE27=I Diddle
EXTD=
EXTT0=
EXTT1=
EXTT2=
EXTT3=
EXTT4=
EXTT5=
EXTT6=
EXTT7=
EXTT8=
EXTT9=
EXTT10=
EXTT11=
EXTT12=
EXTT13=
EXTT14=
EXTT15=
EXTT16=
EXTT17=
EXTT18=
EXTT19=
EXTT20=
EXTT21=
EXTT22=
EXTT23=
EXTT24=
EXTT25=
EXTT26=
EXTT27=
PLAYORDER=
